PathFileType	4	(X/Y/Z)	jw_ngait_og1.trc	
DataRate	CameraRate	NumFrames	NumMarkers	Units	OrigDataRate	OrigDataStartFrame	OrigNumFrames	
120.00	120.00	5	56	mm	120.00	278	327	
Frame#	Time	Sternum			Neck			RShoulder			LShoulder			Xiphoid			Thoracic			RAsis			LAsis			RPsis			LPsis			Lumbar			RElbow			RWrist			RRadius			RUlna			LElbow			LWrist			LUlna			LRadius			LThighSuperior			LThighInferior			LThighLateral			LPatella			LShankSuperior			LShankInferior			LShankLateral			RThighSuperior			RThighInferior			RThighLateral			RPatella			RShankSuperior			RShankInferior			RShankLateral			RHeel			RToe			RMidfootMedial			RMidfootLateral			RHindfoot			RMidfootSuperior			RToeMedial			RToeLateral			LHeel			LToe			LMidfootMedial			LMidfootLateral			LHindfoot			LMidfootSuperior			LToeMedial			LToeLateral			LShoulderCenter			Oglobal			RShoulderCenter			Sacral			Xglobal			Yglobal			Zglobal			
		X1	Y1	Z1	X2	Y2	Z2	X3	Y3	Z3	X4	Y4	Z4	X5	Y5	Z5	X6	Y6	Z6	X7	Y7	Z7	X8	Y8	Z8	X9	Y9	Z9	X10	Y10	Z10	X11	Y11	Z11	X12	Y12	Z12	X13	Y13	Z13	X14	Y14	Z14	X15	Y15	Z15	X16	Y16	Z16	X17	Y17	Z17	X18	Y18	Z18	X19	Y19	Z19	X20	Y20	Z20	X21	Y21	Z21	X22	Y22	Z22	X23	Y23	Z23	X24	Y24	Z24	X25	Y25	Z25	X26	Y26	Z26	X27	Y27	Z27	X28	Y28	Z28	X29	Y29	Z29	X30	Y30	Z30	X31	Y31	Z31	X32	Y32	Z32	X33	Y33	Z33	X34	Y34	Z34	X35	Y35	Z35	X36	Y36	Z36	X37	Y37	Z37	X38	Y38	Z38	X39	Y39	Z39	X40	Y40	Z40	X41	Y41	Z41	X42	Y42	Z42	X43	Y43	Z43	X44	Y44	Z44	X45	Y45	Z45	X46	Y46	Z46	X47	Y47	Z47	X48	Y48	Z48	X49	Y49	Z49	X50	Y50	Z50	X51	Y51	Z51	X52	Y52	Z52	X53	Y53	Z53	X54	Y54	Z54	X55	Y55	Z55	X56	Y56	Z56	

164	1.358	-45.57341	123.55899	1306.56372	86.00595	128.06532	1424.06982	20.47786	305.54514	1372.70239	43.01124	-58.63363	1362.82996	-41.06127	120.44292	1190.24158	178.83180	135.42757	1233.91162	-38.51946	264.38348	967.29358	0.67636	-5.01590	948.91589	188.50890	170.12035	946.67053	196.65057	111.00821	943.87463	187.39490	149.12000	1015.27289	94.48066	413.03369	1051.07751	-10.98275	408.83978	805.75854	-27.02188	373.44952	813.78003	36.74841	405.14142	799.97516	127.18294	-107.92271	1038.94812	100.58406	-105.70287	765.80835	150.26549	-100.25896	772.70178	81.92326	-71.78172	788.26184	5.81430	-49.11073	785.66736	-119.16078	-8.69830	569.80731	-120.90123	4.35811	693.23285	-194.46303	43.11129	522.28925	-152.28323	-0.68839	428.03830	-191.94521	29.90620	173.39886	-208.28838	69.80257	306.55157	48.03876	307.12164	775.16644	87.51672	272.64645	534.27612	16.17125	247.63420	616.46790	91.15195	229.76762	443.71793	252.37689	281.81741	407.52231	375.87903	229.21202	209.23816	278.03735	196.85989	267.10184	514.85962	173.72887	156.72530	267.52383	243.33655	29.27953	329.46054	174.11522	34.80375	366.91882	281.71979	49.62362	442.55154	261.70673	74.10777	343.27811	219.06740	119.47043	302.16074	192.24156	30.44123	316.12411	279.80530	35.63770	-123.60934	68.15036	44.36261	-417.79230	41.20435	83.92034	-335.94904	107.92063	53.87473	-318.81561	-15.46378	49.62876	-221.38402	1.62126	23.19494	-283.63748	49.92522	123.38910	-380.61670	83.46347	70.83420	-366.94913	-4.59457	62.92968	67.63288	-45.85304	1320.14978	0.00000	0.00000	0.00000	44.09326	305.22220	1330.38672	192.57974	140.56427	945.27258	200.00000	0.00000	0.00000	0.00000	200.00000	0.00000	0.00000	0.00000	200.00000 
165	1.367	-56.06017	121.36018	1307.74805	75.81300	126.94961	1424.67542	8.69544	304.14267	1373.60303	34.01309	-59.74806	1363.01819	-51.99519	118.39828	1191.21265	168.18533	135.84416	1234.37366	-51.03463	262.01801	967.86835	-9.79630	-6.89508	950.32812	176.61540	170.14224	946.50372	185.08168	111.05589	943.74701	176.03833	148.88164	1015.08679	82.89852	410.66071	1051.99646	-21.38951	406.82602	806.03595	-37.94546	371.65836	814.08960	26.56178	403.07904	800.63416	115.53219	-109.57386	1038.52454	86.21920	-108.09864	765.82306	136.19096	-102.68406	772.36847	67.84892	-73.62138	787.89246	-5.04999	-50.08265	786.64795	-130.89772	-9.45961	571.26971	-132.23743	0.56272	694.49023	-205.39667	42.07025	522.23529	-162.16635	-1.64809	428.32001	-195.39081	29.81381	173.14786	-215.31172	69.10638	306.14365	32.86002	305.88037	774.61456	68.31628	273.26755	533.12463	-1.45646	247.96306	616.44360	71.48999	231.63873	440.60162	235.15143	282.50461	408.86639	364.46292	229.38820	214.72200	264.64609	197.41620	269.43808	504.33160	172.03513	168.91663	266.83478	243.62257	27.94239	326.09653	174.06766	36.75781	363.97269	281.28482	53.23102	438.55380	260.77155	81.73257	335.52988	219.28938	121.84512	301.31610	192.57832	30.44878	315.11749	279.71799	36.09233	-124.29910	68.32993	45.14980	-419.67563	41.12442	78.35362	-336.94757	107.28568	49.98512	-319.24271	-16.04596	46.64712	-221.82339	1.60860	22.85979	-285.89111	49.80285	120.84586	-382.22162	83.50733	66.22180	-368.35742	-4.67867	58.83237	58.51015	-47.18939	1320.60754	0.00000	0.00000	0.00000	32.28360	303.67435	1331.54053	180.84854	140.59906	945.12537	200.00000	0.00000	0.00000	0.00000	200.00000	0.00000	0.00000	0.00000	200.00000 
166	1.375	-66.60220	119.55054	1308.94629	65.64230	125.95208	1425.62280	-3.19706	302.64294	1374.75476	25.29117	-60.90609	1363.74512	-62.69616	116.40453	1192.56335	157.50533	136.10571	1234.89832	-63.24135	259.93109	968.74933	-20.43493	-8.98813	952.16089	164.88989	170.15877	946.27771	173.67250	111.12951	944.05225	164.82066	148.30573	1015.07355	71.28281	408.56277	1052.89148	-31.93936	404.76981	806.36456	-48.74458	369.50031	814.41785	15.90429	400.78610	801.20062	103.84515	-111.28933	1038.61987	71.92999	-110.29365	766.01929	121.87834	-105.05686	772.24182	53.57562	-75.64595	788.29065	-16.15019	-51.42608	787.98779	-142.85161	-10.18145	572.96997	-143.59006	-3.02836	695.97534	-215.64273	41.04520	521.86041	-171.00232	-2.55937	428.72876	-198.98042	29.69543	172.89693	-221.70386	68.40659	305.65799	18.27205	304.94391	774.49658	48.35291	273.45981	531.86090	-19.54832	247.93271	616.70007	50.60199	232.15750	438.08618	216.57364	282.67139	410.24106	351.87476	229.57501	220.66168	250.26338	198.13644	272.02338	492.19904	170.59091	181.73868	265.93976	244.09781	26.73514	322.32388	174.97379	39.04654	361.31976	281.56067	56.93639	433.71942	259.66318	90.21655	327.80707	220.68497	124.28549	300.35196	192.96570	30.87857	313.81873	279.49075	36.75681	-124.92866	68.19357	45.84825	-421.22714	41.26878	73.70475	-337.52789	107.70092	46.86364	-320.08533	-15.69251	44.60219	-221.99072	1.76831	22.43843	-288.47485	50.47299	119.22956	-383.49423	83.51996	62.27544	-369.43314	-4.49794	55.41605	49.48180	-47.99507	1321.34192	0.00000	0.00000	0.00000	20.19304	302.61307	1332.69202	169.28119	140.64413	945.16498	200.00000	0.00000	0.00000	0.00000	200.00000	0.00000	0.00000	0.00000	200.00000 
167	1.383	-76.79177	117.59967	1310.43518	55.57098	125.26300	1426.60327	-15.03358	301.12125	1375.76233	16.49396	-61.86068	1364.59460	-73.37939	114.58473	1193.99585	147.00847	136.23709	1235.76392	-74.52119	257.49344	969.43677	-30.85535	-10.61602	954.10773	153.17574	170.12109	946.37286	162.13000	111.21831	944.26086	154.18182	147.38731	1015.09833	59.23235	406.58765	1054.03479	-42.52745	402.44800	806.84265	-59.30288	367.51859	814.88171	5.63201	398.58307	802.01678	92.15223	-112.77338	1038.93970	57.32628	-112.64687	766.67102	107.13140	-107.46912	772.21790	39.26818	-77.94305	789.14459	-26.91976	-53.02368	789.39825	-153.79086	-9.95017	574.33691	-154.51634	-6.49249	697.31610	-224.86497	40.15871	521.57520	-179.13358	-3.08660	428.39780	-202.15135	29.58801	172.64755	-227.34540	67.87569	305.00818	4.02954	303.87943	774.51959	27.67374	273.28412	530.68152	-37.92838	247.87375	617.12128	29.59635	232.04071	435.81418	197.11421	282.74203	412.03613	337.98447	229.80658	226.92976	234.42351	198.42406	274.83267	478.79755	169.69496	195.59508	264.50201	244.08051	25.17499	318.86505	175.07866	41.87314	357.81967	281.33243	61.72681	427.42438	258.87503	99.82487	318.77429	221.40039	126.85237	298.66089	193.12392	31.30928	311.65274	279.20255	37.96214	-125.40982	68.36091	46.51176	-422.52960	41.34074	69.63239	-338.07062	107.46007	43.87819	-320.36526	-15.91000	42.59610	-222.31506	1.74322	22.26389	-290.41855	50.69989	117.49120	-384.39511	83.48792	58.57547	-370.34738	-4.61217	52.43404	40.75202	-48.95271	1322.45361	0.00000	0.00000	0.00000	8.50850	301.39062	1333.97070	157.65286	140.66971	945.31689	200.00000	0.00000	0.00000	0.00000	200.00000	0.00000	0.00000	0.00000	200.00000 
168	1.392	-87.13697	115.98443	1312.02979	45.45611	124.45110	1427.88391	-26.78903	299.75601	1377.11230	7.89025	-62.81524	1365.74719	-83.47865	112.76022	1195.42859	136.35765	136.52995	1236.62366	-86.09167	255.43695	970.81134	-41.02839	-12.39404	956.01556	141.86253	170.16504	946.64734	150.79065	111.21252	944.95984	143.46362	146.77516	1015.52765	46.97496	404.62555	1055.33569	-53.04862	400.45212	807.38019	-69.76063	365.07837	815.15924	-5.00680	396.47946	802.89136	80.60545	-114.22128	1039.59924	42.44247	-115.16701	767.83997	92.24979	-110.00727	772.73254	24.68426	-80.47038	790.31873	-37.31342	-54.57517	790.88330	-165.16907	-10.36739	575.83746	-164.39415	-9.91765	698.35638	-231.11130	39.79183	519.08929	-186.40840	-3.50684	428.12366	-205.18303	29.56934	172.44151	-232.42480	67.62151	304.28406	-10.49877	302.72733	774.40784	6.58456	272.80423	529.56110	-56.64391	247.41603	617.86786	7.42053	231.37582	434.43646	177.01566	282.62582	414.15137	322.46799	229.60727	232.74268	217.54587	198.93903	277.49521	463.16122	168.98126	209.80530	262.67612	244.15059	23.51004	314.69724	174.84642	44.99673	352.68774	280.94241	67.39885	419.35541	258.17899	110.48331	308.70947	221.37128	129.64130	296.53339	193.26567	31.97181	309.20389	279.27631	40.41782	-125.91045	68.47195	47.02415	-423.57227	41.31239	65.57401	-338.57321	107.16763	40.90121	-320.63739	-16.17553	40.63863	-222.39566	1.74499	21.98648	-291.95795	50.93964	115.57848	-385.43570	83.31987	55.34442	-371.13373	-4.65855	49.53503	31.89373	-49.53234	1323.71619	0.00000	0.00000	0.00000	-3.40070	300.51022	1335.43140	146.32660	140.68878	945.80359	200.00000	0.00000	0.00000	0.00000	200.00000	0.00000	0.00000	0.00000	200.00000 
